<svg xmlns="http://www.w3.org/2000/svg" viewBox="0 0 32 32">
  <defs>
    <linearGradient id="cardGrad" x1="0%" y1="0%" x2="100%" y2="100%">
      <stop offset="0%" style="stop-color:#10b981;stop-opacity:1" />
      <stop offset="100%" style="stop-color:#059669;stop-opacity:1" />
    </linearGradient>
  </defs>
  <!-- Back card -->
  <rect x="8" y="4" width="18" height="24" rx="2" fill="#1e293b" stroke="#475569" stroke-width="1"/>
  <!-- Front card -->
  <rect x="4" y="6" width="18" height="24" rx="2" fill="url(#cardGrad)" stroke="#34d399" stroke-width="1"/>
  <!-- Spade symbol -->
  <path d="M13 14c0-3 3-4 3-6 0 2 3 3 3 6 0 2-1.5 3-3 2.5-1.5.5-3-.5-3-2.5z" fill="white"/>
  <path d="M13 22c.5-2 3-2 3-2s2.5 0 3 2c-1 0-1.5.5-1.5 1h-3c0-.5-.5-1-1.5-1z" fill="white"/>
</svg>

